<svg xmlns="http://www.w3.org/2000/svg" version="1.1" xmlns:xlink="http://www.w3.org/1999/xlink" xmlns:svgjs="http://svgjs.dev/svgjs" width="1500" height="1500" viewBox="0 0 1500 1500"><rect width="1500" height="1500" fill="#f9f9f9"></rect><g transform="matrix(0.6666666666666666,0,0,0.6666666666666666,249.39393939393938,633.7054162662954)"><svg viewBox="0 0 396 92" data-background-color="#f9f9f9" preserveAspectRatio="xMidYMid meet" height="348" width="1500" xmlns="http://www.w3.org/2000/svg" xmlns:xlink="http://www.w3.org/1999/xlink"><g id="tight-bounds" transform="matrix(1,0,0,1,0.2400000000000091,0.11681768750355559)"><svg viewBox="0 0 395.52 91.76636462499286" height="91.76636462499286" width="395.52"><g><svg viewBox="0 0 395.52 91.76636462499286" height="91.76636462499286" width="395.52"><g><svg viewBox="0 0 395.52 91.76636462499286" height="91.76636462499286" width="395.52"><g id="textblocktransform"><svg viewBox="0 0 395.52 91.76636462499286" height="91.76636462499286" width="395.52" id="textblock"><g><svg viewBox="0 0 395.52 59.724772967265054" height="59.724772967265054" width="395.52"><g transform="matrix(1,0,0,1,0,0)"><svg width="395.52" viewBox="2.3 -35.3 236.73 35.75" height="59.724772967265054" data-palette-color="#000000"><path d="M13.2 0.35Q8.35 0.35 5.33-1.98 2.3-4.3 2.3-8.2L2.3-8.2Q2.3-8.95 2.35-9.3L2.35-9.3 6.85-9.3Q6.7-6.85 8.35-5.1 10-3.35 13.4-3.35L13.4-3.35Q16.8-3.35 18.8-4.9 20.8-6.45 20.8-9.25L20.8-9.25Q20.8-10.95 19.83-12.13 18.85-13.3 17.43-14.08 16-14.85 13.55-15.8L13.55-15.8Q10.55-17 8.72-18.05 6.9-19.1 5.65-20.9 4.4-22.7 4.5-25.45L4.5-25.45Q4.5-28.35 6.05-30.6 7.6-32.85 10.33-34.08 13.05-35.3 16.55-35.3L16.55-35.3Q19.95-35.3 22.43-34.15 24.9-33 26.15-30.95 27.4-28.9 27.25-26.35L27.25-26.35 22.5-26.35Q22.6-27.65 21.93-28.85 21.25-30.05 19.83-30.8 18.4-31.55 16.3-31.55L16.3-31.55Q13.05-31.55 11.08-30.03 9.1-28.5 9.1-25.85L9.1-25.85Q9.1-24.3 10.03-23.18 10.95-22.05 12.35-21.28 13.75-20.5 16.2-19.45L16.2-19.45Q19.15-18.2 21.03-17.13 22.9-16.05 24.2-14.25 25.5-12.45 25.5-9.75L25.5-9.75Q25.5-6.85 24-4.58 22.5-2.3 19.7-0.98 16.9 0.35 13.2 0.35L13.2 0.35ZM31.1-13.8Q31.85-18 34.12-21.18 36.4-24.35 39.67-26.1 42.95-27.85 46.65-27.85L46.65-27.85Q50.25-27.85 52.6-26.3 54.95-24.75 55.85-22.4L55.85-22.4 56.75-27.4 61.35-27.4 56.5 0 51.9 0 52.85-5.1Q51.05-2.7 48.1-1.13 45.15 0.45 41.6 0.45L41.6 0.45Q38.4 0.45 35.95-0.93 33.5-2.3 32.15-4.85 30.8-7.4 30.8-10.75L30.8-10.75Q30.8-12.25 31.1-13.8L31.1-13.8ZM54.35-13.75Q54.55-14.8 54.55-16L54.55-16Q54.55-19.65 52.37-21.78 50.2-23.9 46.85-23.9L46.85-23.9Q44.3-23.9 41.97-22.7 39.65-21.5 38-19.2 36.35-16.9 35.8-13.8L35.8-13.8Q35.6-12.75 35.6-11.5L35.6-11.5Q35.6-7.8 37.75-5.68 39.9-3.55 43.25-3.55L43.25-3.55Q45.8-3.55 48.12-4.78 50.45-6 52.12-8.33 53.8-10.65 54.35-13.75L54.35-13.75ZM76.25 0.45Q72.8 0.45 70.17-0.98 67.55-2.4 66.1-4.98 64.65-7.55 64.65-10.95L64.65-10.95Q64.65-15.6 66.8-19.48 68.95-23.35 72.72-25.6 76.5-27.85 81.15-27.85L81.15-27.85Q84.6-27.85 87.27-26.43 89.95-25 91.42-22.43 92.9-19.85 92.9-16.4L92.9-16.4Q92.9-11.75 90.7-7.9 88.5-4.05 84.7-1.8 80.9 0.45 76.25 0.45L76.25 0.45ZM76.8-3.4Q80.05-3.4 82.65-5.18 85.25-6.95 86.72-9.88 88.2-12.8 88.2-16.15L88.2-16.15Q88.2-19.95 86-21.98 83.8-24 80.5-24L80.5-24Q77.25-24 74.7-22.23 72.15-20.45 70.75-17.5 69.35-14.55 69.35-11.15L69.35-11.15Q69.35-7.45 71.45-5.43 73.55-3.4 76.8-3.4L76.8-3.4ZM120.79-27.4L125.34-27.4 120.49 0 115.94 0 116.64-4Q114.99-1.9 112.44-0.75 109.89 0.4 107.14 0.4L107.14 0.4Q102.84 0.4 100.27-1.93 97.69-4.25 97.69-8.6L97.69-8.6Q97.69-9.7 97.94-11.35L97.94-11.35 100.79-27.4 105.29-27.4 102.59-11.95Q102.39-10.9 102.39-9.75L102.39-9.75Q102.39-6.7 104.07-5.13 105.74-3.55 108.74-3.55L108.74-3.55Q112.34-3.55 114.87-5.8 117.39-8.05 118.09-12.35L118.09-12.35 118.09-12.2 120.79-27.4ZM137.84 0.45Q133.54 0.45 130.79-1.6 128.04-3.65 128.04-7.1L128.04-7.1Q128.04-7.75 128.09-8.05L128.09-8.05 132.54-8.05Q132.34-5.9 133.82-4.55 135.29-3.2 138.09-3.2L138.09-3.2Q140.89-3.2 142.62-4.28 144.34-5.35 144.34-7.3L144.34-7.3Q144.34-8.95 142.94-9.9 141.54-10.85 138.64-11.95L138.64-11.95Q136.09-12.9 134.44-13.75 132.79-14.6 131.64-16.13 130.49-17.65 130.49-20L130.49-20Q130.49-22.3 131.82-24.1 133.14-25.9 135.52-26.88 137.89-27.85 140.94-27.85L140.94-27.85Q145.14-27.85 147.84-25.75 150.54-23.65 150.54-20.25L150.54-20.25Q150.54-19.6 150.49-19.25L150.49-19.25 146.14-19.25 146.19-19.85Q146.19-21.85 144.67-23.03 143.14-24.2 140.64-24.2L140.64-24.2Q138.19-24.2 136.62-23.1 135.04-22 135.04-20.15L135.04-20.15Q135.04-18.4 136.49-17.4 137.94-16.4 140.99-15.2L140.99-15.2Q143.54-14.2 145.09-13.38 146.64-12.55 147.74-11.1 148.84-9.65 148.84-7.45L148.84-7.45Q148.84-5.05 147.42-3.25 145.99-1.45 143.49-0.5 140.99 0.45 137.84 0.45L137.84 0.45ZM163.94 0.45Q159.64 0.45 156.89-1.6 154.14-3.65 154.14-7.1L154.14-7.1Q154.14-7.75 154.19-8.05L154.19-8.05 158.64-8.05Q158.44-5.9 159.91-4.55 161.39-3.2 164.19-3.2L164.19-3.2Q166.99-3.2 168.71-4.28 170.44-5.35 170.44-7.3L170.44-7.3Q170.44-8.95 169.04-9.9 167.64-10.85 164.74-11.95L164.74-11.95Q162.19-12.9 160.54-13.75 158.89-14.6 157.74-16.13 156.59-17.65 156.59-20L156.59-20Q156.59-22.3 157.91-24.1 159.24-25.9 161.61-26.88 163.99-27.85 167.04-27.85L167.04-27.85Q171.24-27.85 173.94-25.75 176.64-23.65 176.64-20.25L176.64-20.25Q176.64-19.6 176.59-19.25L176.59-19.25 172.24-19.25 172.29-19.85Q172.29-21.85 170.76-23.03 169.24-24.2 166.74-24.2L166.74-24.2Q164.29-24.2 162.71-23.1 161.14-22 161.14-20.15L161.14-20.15Q161.14-18.4 162.59-17.4 164.04-16.4 167.09-15.2L167.09-15.2Q169.64-14.2 171.19-13.38 172.74-12.55 173.84-11.1 174.94-9.65 174.94-7.45L174.94-7.45Q174.94-5.05 173.51-3.25 172.09-1.45 169.59-0.5 167.09 0.45 163.94 0.45L163.94 0.45ZM197.14-27.85Q200.59-27.85 203.11-26.53 205.64-25.2 206.96-22.83 208.29-20.45 208.29-17.4L208.29-17.4Q208.29-16.35 208.04-14.85L208.04-14.85Q207.84-13.55 207.39-12.15L207.39-12.15 185.49-12.15Q185.39-11.15 185.39-10.7L185.39-10.7Q185.39-7.25 187.46-5.33 189.53-3.4 192.89-3.4L192.89-3.4Q195.84-3.4 198.06-4.78 200.29-6.15 201.44-8.45L201.44-8.45 206.34-8.45Q204.54-4.5 200.81-2.02 197.09 0.45 192.19 0.45L192.19 0.45Q187.03 0.45 183.91-2.53 180.78-5.5 180.78-10.65L180.78-10.65Q180.78-12.1 181.09-13.75L181.09-13.75Q181.84-18 184.14-21.2 186.44-24.4 189.81-26.13 193.19-27.85 197.14-27.85L197.14-27.85ZM203.44-15.45Q203.59-16.45 203.59-17.3L203.59-17.3Q203.59-20.5 201.56-22.25 199.54-24 196.28-24L196.28-24Q192.78-24 189.94-21.73 187.09-19.45 186.09-15.45L186.09-15.45 203.44-15.45ZM229.68-27.9Q233.93-27.9 236.48-25.63 239.03-23.35 239.03-19L239.03-19Q239.03-17.4 238.78-16.15L238.78-16.15 235.93 0 231.43 0 234.18-15.5Q234.38-16.55 234.38-17.7L234.38-17.7Q234.38-20.75 232.71-22.35 231.03-23.95 228.03-23.95L228.03-23.95Q224.43-23.95 221.91-21.7 219.38-19.45 218.63-15.15L218.63-15.15 218.63-15.25 215.93 0 211.38 0 216.23-27.4 220.78-27.4 220.08-23.45Q221.78-25.6 224.33-26.75 226.88-27.9 229.68-27.9L229.68-27.9Z" opacity="1" transform="matrix(1,0,0,1,0,0)" fill="#000000" class="wordmark-text-0" data-fill-palette-color="primary" id="text-0"></path></svg></g></svg></g><g transform="matrix(1,0,0,1,163.310208,73.82435847028512)"><svg viewBox="0 0 232.209792 17.942006154707737" height="17.942006154707737" width="232.209792"><g transform="matrix(1,0,0,1,0,0)"><svg width="232.209792" viewBox="2.4 -37 571.35 44.15" height="17.942006154707737" data-palette-color="#030303"><path d="M2.7-17.45Q3.6-22.55 6.63-26.63 9.65-30.7 14.03-33 18.4-35.3 23.2-35.3L23.2-35.3Q28.9-35.3 32.68-32.55 36.45-29.8 37.55-24.75L37.55-24.75 32.1-24.75Q31.2-27.8 28.75-29.48 26.3-31.15 22.5-31.15L22.5-31.15Q18.85-31.15 15.68-29.48 12.5-27.8 10.3-24.68 8.1-21.55 7.35-17.45L7.35-17.45Q7.1-16.15 7.1-14.45L7.1-14.45Q7.1-9.55 9.98-6.68 12.85-3.8 17.65-3.8L17.65-3.8Q21.45-3.8 24.5-5.45 27.55-7.1 29.5-10.15L29.5-10.15 34.95-10.15Q32.1-5.15 27.38-2.43 22.65 0.3 16.95 0.3L16.95 0.3Q12.7 0.3 9.4-1.48 6.1-3.25 4.25-6.48 2.4-9.7 2.4-13.9L2.4-13.9Q2.4-15.65 2.7-17.45L2.7-17.45ZM51.95 0.45Q48.5 0.45 45.87-0.98 43.25-2.4 41.8-4.98 40.35-7.55 40.35-10.95L40.35-10.95Q40.35-15.6 42.5-19.48 44.65-23.35 48.42-25.6 52.2-27.85 56.85-27.85L56.85-27.85Q60.3-27.85 62.97-26.43 65.65-25 67.12-22.43 68.6-19.85 68.6-16.4L68.6-16.4Q68.6-11.75 66.4-7.9 64.2-4.05 60.4-1.8 56.6 0.45 51.95 0.45L51.95 0.45ZM52.5-3.4Q55.75-3.4 58.35-5.18 60.95-6.95 62.42-9.88 63.9-12.8 63.9-16.15L63.9-16.15Q63.9-19.95 61.7-21.98 59.5-24 56.2-24L56.2-24Q52.95-24 50.4-22.23 47.85-20.45 46.45-17.5 45.05-14.55 45.05-11.15L45.05-11.15Q45.05-7.45 47.15-5.43 49.25-3.4 52.5-3.4L52.5-3.4ZM72.59-13.8Q73.34-18 75.62-21.18 77.89-24.35 81.19-26.1 84.5-27.85 88.19-27.85L88.19-27.85Q91.34-27.85 93.84-26.38 96.34-24.9 97.39-22.5L97.39-22.5 99.94-37 104.55-37 98 0 93.39 0 94.34-5.15Q92.59-2.7 89.64-1.13 86.69 0.45 83.14 0.45L83.14 0.45Q79.94 0.45 77.5-0.93 75.05-2.3 73.67-4.85 72.3-7.4 72.3-10.75L72.3-10.75Q72.3-12.25 72.59-13.8L72.59-13.8ZM95.84-13.75Q96.05-14.8 96.05-16L96.05-16Q96.05-19.65 93.87-21.78 91.69-23.9 88.34-23.9L88.34-23.9Q85.8-23.9 83.47-22.7 81.14-21.5 79.5-19.2 77.84-16.9 77.3-13.8L77.3-13.8Q77.09-12.75 77.09-11.5L77.09-11.5Q77.09-7.8 79.25-5.68 81.39-3.55 84.75-3.55L84.75-3.55Q87.3-3.55 89.62-4.78 91.94-6 93.62-8.33 95.3-10.65 95.84-13.75L95.84-13.75ZM122.44-27.85Q125.89-27.85 128.42-26.53 130.94-25.2 132.27-22.83 133.59-20.45 133.59-17.4L133.59-17.4Q133.59-16.35 133.34-14.85L133.34-14.85Q133.14-13.55 132.69-12.15L132.69-12.15 110.79-12.15Q110.69-11.15 110.69-10.7L110.69-10.7Q110.69-7.25 112.77-5.33 114.84-3.4 118.19-3.4L118.19-3.4Q121.14-3.4 123.37-4.78 125.59-6.15 126.74-8.45L126.74-8.45 131.64-8.45Q129.84-4.5 126.12-2.02 122.39 0.45 117.49 0.45L117.49 0.45Q112.34 0.45 109.22-2.53 106.09-5.5 106.09-10.65L106.09-10.65Q106.09-12.1 106.39-13.75L106.39-13.75Q107.14-18 109.44-21.2 111.74-24.4 115.12-26.13 118.49-27.85 122.44-27.85L122.44-27.85ZM128.74-15.45Q128.89-16.45 128.89-17.3L128.89-17.3Q128.89-20.5 126.87-22.25 124.84-24 121.59-24L121.59-24Q118.09-24 115.24-21.73 112.39-19.45 111.39-15.45L111.39-15.45 128.74-15.45ZM137.49-6.3L142.49-6.3 134.54 7.15 131.49 7.15 137.49-6.3ZM162.89-17.45Q163.79-22.55 166.81-26.63 169.84-30.7 174.21-33 178.59-35.3 183.39-35.3L183.39-35.3Q189.09-35.3 192.86-32.55 196.64-29.8 197.74-24.75L197.74-24.75 192.29-24.75Q191.39-27.8 188.94-29.48 186.49-31.15 182.69-31.15L182.69-31.15Q179.04-31.15 175.86-29.48 172.69-27.8 170.49-24.68 168.29-21.55 167.54-17.45L167.54-17.45Q167.29-16.15 167.29-14.45L167.29-14.45Q167.29-9.55 170.16-6.68 173.04-3.8 177.84-3.8L177.84-3.8Q181.64-3.8 184.69-5.45 187.74-7.1 189.69-10.15L189.69-10.15 195.14-10.15Q192.29-5.15 187.56-2.43 182.84 0.3 177.14 0.3L177.14 0.3Q172.89 0.3 169.59-1.48 166.29-3.25 164.44-6.48 162.59-9.7 162.59-13.9L162.59-13.9Q162.59-15.65 162.89-17.45L162.89-17.45ZM208.58-22.2Q210.23-24.9 212.73-26.4 215.23-27.9 218.43-27.9L218.43-27.9 217.58-23.2 216.38-23.2Q212.83-23.2 210.46-21.3 208.08-19.4 207.28-14.9L207.28-14.9 204.63 0 200.08 0 204.93-27.4 209.48-27.4 208.58-22.2ZM235.48-27.85Q238.93-27.85 241.46-26.53 243.98-25.2 245.31-22.83 246.63-20.45 246.63-17.4L246.63-17.4Q246.63-16.35 246.38-14.85L246.38-14.85Q246.18-13.55 245.73-12.15L245.73-12.15 223.83-12.15Q223.73-11.15 223.73-10.7L223.73-10.7Q223.73-7.25 225.81-5.33 227.88-3.4 231.23-3.4L231.23-3.4Q234.18-3.4 236.41-4.78 238.63-6.15 239.78-8.45L239.78-8.45 244.68-8.45Q242.88-4.5 239.16-2.02 235.43 0.45 230.53 0.45L230.53 0.45Q225.38 0.45 222.26-2.53 219.13-5.5 219.13-10.65L219.13-10.65Q219.13-12.1 219.43-13.75L219.43-13.75Q220.18-18 222.48-21.2 224.78-24.4 228.16-26.13 231.53-27.85 235.48-27.85L235.48-27.85ZM241.78-15.45Q241.93-16.45 241.93-17.3L241.93-17.3Q241.93-20.5 239.91-22.25 237.88-24 234.63-24L234.63-24Q231.13-24 228.28-21.73 225.43-19.45 224.43-15.45L224.43-15.45 241.78-15.45ZM250.43-13.8Q251.18-18 253.45-21.18 255.73-24.35 259-26.1 262.28-27.85 265.98-27.85L265.98-27.85Q269.58-27.85 271.93-26.3 274.28-24.75 275.18-22.4L275.18-22.4 276.08-27.4 280.68-27.4 275.83 0 271.23 0 272.18-5.1Q270.38-2.7 267.43-1.13 264.48 0.45 260.93 0.45L260.93 0.45Q257.73 0.45 255.28-0.93 252.83-2.3 251.48-4.85 250.13-7.4 250.13-10.75L250.13-10.75Q250.13-12.25 250.43-13.8L250.43-13.8ZM273.68-13.75Q273.88-14.8 273.88-16L273.88-16Q273.88-19.65 271.7-21.78 269.53-23.9 266.18-23.9L266.18-23.9Q263.63-23.9 261.3-22.7 258.98-21.5 257.33-19.2 255.68-16.9 255.13-13.8L255.13-13.8Q254.93-12.75 254.93-11.5L254.93-11.5Q254.93-7.8 257.08-5.68 259.23-3.55 262.58-3.55L262.58-3.55Q265.13-3.55 267.45-4.78 269.78-6 271.45-8.33 273.13-10.65 273.68-13.75L273.68-13.75ZM293.28-23.65L290.43-7.5Q290.28-6.75 290.28-6.2L290.28-6.2Q290.28-4.95 291.05-4.4 291.83-3.85 293.58-3.85L293.58-3.85 296.93-3.85 296.23 0 292.13 0Q288.88 0 287.25-1.25 285.63-2.5 285.63-5.35L285.63-5.35Q285.63-6.45 285.83-7.5L285.83-7.5 288.68-23.65 285.18-23.65 285.83-27.4 289.38-27.4 290.58-34.3 295.18-34.3 293.98-27.4 301.08-27.4 300.43-23.65 293.28-23.65ZM318.47-27.85Q321.92-27.85 324.45-26.53 326.97-25.2 328.3-22.83 329.62-20.45 329.62-17.4L329.62-17.4Q329.62-16.35 329.37-14.85L329.37-14.85Q329.17-13.55 328.72-12.15L328.72-12.15 306.82-12.15Q306.72-11.15 306.72-10.7L306.72-10.7Q306.72-7.25 308.8-5.33 310.87-3.4 314.22-3.4L314.22-3.4Q317.17-3.4 319.4-4.78 321.62-6.15 322.77-8.45L322.77-8.45 327.67-8.45Q325.87-4.5 322.15-2.02 318.42 0.45 313.52 0.45L313.52 0.45Q308.37 0.45 305.25-2.53 302.12-5.5 302.12-10.65L302.12-10.65Q302.12-12.1 302.42-13.75L302.42-13.75Q303.17-18 305.47-21.2 307.77-24.4 311.15-26.13 314.52-27.85 318.47-27.85L318.47-27.85ZM324.77-15.45Q324.92-16.45 324.92-17.3L324.92-17.3Q324.92-20.5 322.9-22.25 320.87-24 317.62-24L317.62-24Q314.12-24 311.27-21.73 308.42-19.45 307.42-15.45L307.42-15.45 324.77-15.45ZM333.52-6.3L338.52-6.3 330.57 7.15 327.52 7.15 333.52-6.3ZM363.71-34.85L368.26-34.85 362.06 0 357.51 0 363.71-34.85ZM388.11-27.9Q392.36-27.9 394.91-25.63 397.46-23.35 397.46-19L397.46-19Q397.46-17.4 397.21-16.15L397.21-16.15 394.36 0 389.86 0 392.61-15.5Q392.81-16.55 392.81-17.7L392.81-17.7Q392.81-20.75 391.14-22.35 389.46-23.95 386.46-23.95L386.46-23.95Q382.86-23.95 380.34-21.7 377.81-19.45 377.06-15.15L377.06-15.15 377.06-15.25 374.36 0 369.81 0 374.66-27.4 379.21-27.4 378.51-23.45Q380.21-25.6 382.76-26.75 385.31-27.9 388.11-27.9L388.11-27.9ZM420.11-27.9Q424.36-27.9 426.91-25.63 429.46-23.35 429.46-19L429.46-19Q429.46-17.4 429.21-16.15L429.21-16.15 426.36 0 421.86 0 424.61-15.5Q424.81-16.55 424.81-17.7L424.81-17.7Q424.81-20.75 423.13-22.35 421.46-23.95 418.46-23.95L418.46-23.95Q414.86-23.95 412.33-21.7 409.81-19.45 409.06-15.15L409.06-15.15 409.06-15.25 406.36 0 401.81 0 406.66-27.4 411.21-27.4 410.51-23.45Q412.21-25.6 414.76-26.75 417.31-27.9 420.11-27.9L420.11-27.9ZM445.86 0.45Q442.41 0.45 439.78-0.98 437.16-2.4 435.71-4.98 434.26-7.55 434.26-10.95L434.26-10.95Q434.26-15.6 436.41-19.48 438.56-23.35 442.33-25.6 446.11-27.85 450.76-27.85L450.76-27.85Q454.21-27.85 456.88-26.43 459.56-25 461.03-22.43 462.51-19.85 462.51-16.4L462.51-16.4Q462.51-11.75 460.31-7.9 458.11-4.05 454.31-1.8 450.51 0.45 445.86 0.45L445.86 0.45ZM446.41-3.4Q449.66-3.4 452.26-5.18 454.86-6.95 456.33-9.88 457.81-12.8 457.81-16.15L457.81-16.15Q457.81-19.95 455.61-21.98 453.41-24 450.11-24L450.11-24Q446.86-24 444.31-22.23 441.76-20.45 440.36-17.5 438.96-14.55 438.96-11.15L438.96-11.15Q438.96-7.45 441.06-5.43 443.16-3.4 446.41-3.4L446.41-3.4ZM472.31-27.4L476.75-4.3 489.36-27.4 494.25-27.4 478.65 0 473.31 0 467.4-27.4 472.31-27.4ZM494.55-13.8Q495.3-18 497.58-21.18 499.85-24.35 503.13-26.1 506.4-27.85 510.1-27.85L510.1-27.85Q513.7-27.85 516.05-26.3 518.4-24.75 519.3-22.4L519.3-22.4 520.2-27.4 524.8-27.4 519.95 0 515.35 0 516.3-5.1Q514.5-2.7 511.55-1.13 508.6 0.45 505.05 0.45L505.05 0.45Q501.85 0.45 499.4-0.93 496.95-2.3 495.6-4.85 494.25-7.4 494.25-10.75L494.25-10.75Q494.25-12.25 494.55-13.8L494.55-13.8ZM517.8-13.75Q518-14.8 518-16L518-16Q518-19.65 515.83-21.78 513.65-23.9 510.3-23.9L510.3-23.9Q507.75-23.9 505.43-22.7 503.1-21.5 501.45-19.2 499.8-16.9 499.25-13.8L499.25-13.8Q499.05-12.75 499.05-11.5L499.05-11.5Q499.05-7.8 501.2-5.68 503.35-3.55 506.7-3.55L506.7-3.55Q509.25-3.55 511.58-4.78 513.9-6 515.58-8.33 517.25-10.65 517.8-13.75L517.8-13.75ZM537.4-23.65L534.55-7.5Q534.4-6.75 534.4-6.2L534.4-6.2Q534.4-4.95 535.17-4.4 535.95-3.85 537.7-3.85L537.7-3.85 541.05-3.85 540.35 0 536.25 0Q533 0 531.37-1.25 529.75-2.5 529.75-5.35L529.75-5.35Q529.75-6.45 529.95-7.5L529.95-7.5 532.8-23.65 529.3-23.65 529.95-27.4 533.5-27.4 534.7-34.3 539.3-34.3 538.1-27.4 545.2-27.4 544.55-23.65 537.4-23.65ZM562.6-27.85Q566.05-27.85 568.57-26.53 571.1-25.2 572.42-22.83 573.75-20.45 573.75-17.4L573.75-17.4Q573.75-16.35 573.5-14.85L573.5-14.85Q573.3-13.55 572.85-12.15L572.85-12.15 550.95-12.15Q550.85-11.15 550.85-10.7L550.85-10.7Q550.85-7.25 552.92-5.33 555-3.4 558.35-3.4L558.35-3.4Q561.3-3.4 563.52-4.78 565.75-6.15 566.9-8.45L566.9-8.45 571.8-8.45Q570-4.5 566.27-2.02 562.55 0.45 557.65 0.45L557.65 0.45Q552.5 0.45 549.37-2.53 546.25-5.5 546.25-10.65L546.25-10.65Q546.25-12.1 546.55-13.75L546.55-13.75Q547.3-18 549.6-21.2 551.9-24.4 555.27-26.13 558.65-27.85 562.6-27.85L562.6-27.85ZM568.9-15.45Q569.05-16.45 569.05-17.3L569.05-17.3Q569.05-20.5 567.02-22.25 565-24 561.75-24L561.75-24Q558.25-24 555.4-21.73 552.55-19.45 551.55-15.45L551.55-15.45 568.9-15.45Z" opacity="1" transform="matrix(1,0,0,1,0,0)" fill="#030303" class="slogan-text-1" data-fill-palette-color="secondary" id="text-1"></path></svg></g></svg></g></svg></g></svg></g></svg></g><defs></defs></svg><rect width="395.52" height="91.76636462499286" fill="none" stroke="none" visibility="hidden"></rect></g></svg></g></svg>