<svg xmlns="http://www.w3.org/2000/svg" version="1.1" xmlns:xlink="http://www.w3.org/1999/xlink" xmlns:svgjs="http://svgjs.dev/svgjs" width="1500" height="462" viewBox="0 0 1500 462"><g transform="matrix(1,0,0,1,-0.9090909090909918,-0.8276880593606109)"><svg viewBox="0 0 396 122" data-background-color="#111111" preserveAspectRatio="xMidYMid meet" height="462" width="1500" xmlns="http://www.w3.org/2000/svg" xmlns:xlink="http://www.w3.org/1999/xlink"><g id="tight-bounds" transform="matrix(1,0,0,1,0.2400000000000091,0.21856697671427128)"><svg viewBox="0 0 395.52 121.56286604657147" height="121.56286604657147" width="395.52"><g><svg viewBox="0 0 395.52 121.56286604657147" height="121.56286604657147" width="395.52"><g><svg viewBox="0 0 395.52 121.56286604657147" height="121.56286604657147" width="395.52"><g id="textblocktransform"><svg viewBox="0 0 395.52 121.56286604657147" height="121.56286604657147" width="395.52" id="textblock"><g><svg viewBox="0 0 395.52 80.49932157394844" height="80.49932157394844" width="395.52"><g transform="matrix(1,0,0,1,0,0)"><svg width="395.52" viewBox="1.2 -29.6 147.38000000000002 30" height="80.49932157394844" data-palette-color="#ff004f"><path d="M9.6 0.35L9.6 0.35Q6.95 0.35 5.08-0.4 3.2-1.15 2.2-3.05 1.2-4.95 1.2-8.4L1.2-8.4 1.2-10.15Q2.75-10.15 4.25-10.15 5.75-10.15 7.25-10.15L7.25-10.15 7.25-7.9Q7.25-6.05 7.55-5.08 7.85-4.1 8.4-3.73 8.95-3.35 9.7-3.35L9.7-3.35Q10.85-3.35 11.53-4.17 12.2-5 12.2-7.4L12.2-7.4Q12.2-9.25 11.63-10.18 11.05-11.1 9.8-11.68 8.55-12.25 6.6-13.1L6.6-13.1Q4.85-13.85 3.7-14.9 2.55-15.95 2-17.55 1.45-19.15 1.45-21.45L1.45-21.45Q1.45-24.35 2.23-26.15 3-27.95 4.83-28.78 6.65-29.6 9.75-29.6L9.75-29.6Q13.75-29.6 15.88-27.88 18-26.15 18-22.7L18-22.7 18-19.15Q16.55-19.15 15.13-19.15 13.7-19.15 12.2-19.15L12.2-19.15 12.2-20.95Q12.2-23.2 11.68-24.1 11.15-25 9.8-25L9.8-25Q8.5-25 7.95-24.2 7.4-23.4 7.4-21.6L7.4-21.6Q7.4-19.95 8.08-19.03 8.75-18.1 9.8-17.63 10.85-17.15 12.05-16.7L12.05-16.7Q14.25-15.85 15.65-14.98 17.05-14.1 17.7-12.58 18.35-11.05 18.35-8.2L18.35-8.2Q18.35-5 17.28-3.13 16.2-1.25 14.23-0.45 12.25 0.35 9.6 0.35ZM25.85 0.4L25.85 0.4Q24.55 0.4 23.42 0.05 22.3-0.3 21.57-1.43 20.85-2.55 20.85-4.75L20.85-4.75 20.85-8.05Q20.85-10.4 22.22-11.88 23.6-13.35 26.55-14.4L26.55-14.4Q28.1-15.05 29-15.55 29.9-16.05 30.3-16.78 30.7-17.5 30.7-18.75L30.7-18.75 30.7-20.1Q30.7-20.9 30.45-21.33 30.2-21.75 29.72-21.95 29.25-22.15 28.65-22.15L28.65-22.15Q27.35-22.15 26.95-21.28 26.55-20.4 26.55-18.35L26.55-18.35 26.55-16.25 21.4-16.25 21.4-18.9Q21.4-20.75 21.92-22.18 22.45-23.6 24-24.43 25.55-25.25 28.65-25.25L28.65-25.25Q31.8-25.25 33.5-24.68 35.2-24.1 35.85-22.88 36.5-21.65 36.5-19.55L36.5-19.55 36.5 0 30.8 0 30.8-2.75Q30.4-1.3 28.97-0.45 27.55 0.4 25.85 0.4ZM28.3-3.35L28.3-3.35Q29.65-3.35 30.17-4.38 30.7-5.4 30.7-7.25L30.7-7.25 30.7-13.6Q30.4-13.1 29.7-12.73 29-12.35 28.3-11.9L28.3-11.9Q27.35-11.25 26.85-10.58 26.35-9.9 26.35-8.7L26.35-8.7 26.35-6.15Q26.35-5.1 26.6-4.48 26.85-3.85 27.3-3.6 27.75-3.35 28.3-3.35ZM47.34 0.4L47.34 0.4Q44.84 0.4 43.07-0.2 41.3-0.8 40.4-2.58 39.5-4.35 39.5-7.8L39.5-7.8 39.5-18.3Q39.5-22.15 41.45-23.68 43.4-25.2 47.34-25.2L47.34-25.2Q51.3-25.2 53.22-23.68 55.15-22.15 55.15-18.3L55.15-18.3 55.15-7.8Q55.15-4.35 54.27-2.6 53.4-0.85 51.65-0.23 49.9 0.4 47.34 0.4ZM47.34-3L47.34-3Q48.45-3 48.95-3.63 49.45-4.25 49.45-5.9L49.45-5.9 49.45-18.9Q49.45-20.45 48.97-21.13 48.5-21.8 47.34-21.8L47.34-21.8Q46.25-21.8 45.72-21.15 45.2-20.5 45.2-18.9L45.2-18.9 45.2-5.9Q45.2-4.25 45.72-3.63 46.25-3 47.34-3ZM63.94 0.35L63.94 0.35Q61.54 0.35 60.34-0.48 59.14-1.3 58.72-2.75 58.29-4.2 58.29-6.2L58.29-6.2 58.29-24.75 63.99-24.75 63.99-6.55Q63.99-5.8 64.12-5.15 64.24-4.5 64.69-4.1 65.14-3.7 66.14-3.7L66.14-3.7Q66.79-3.7 67.22-3.9 67.64-4.1 67.89-4.4 68.14-4.7 68.24-4.95L68.24-4.95 68.24-24.75 73.94-24.75 73.94 0 69.09 0 68.64-3Q68.24-1.6 66.99-0.63 65.74 0.35 63.94 0.35ZM84.94 0.35L84.94 0.35Q81.84 0.35 80.12-0.43 78.39-1.2 77.72-2.85 77.04-4.5 77.04-7L77.04-7 77.04-8.9 82.74-8.9 82.74-5.7Q82.74-4.1 83.19-3.43 83.64-2.75 84.89-2.75L84.89-2.75Q85.99-2.75 86.47-3.38 86.94-4 86.94-5.25L86.94-5.25 86.94-7.15Q86.94-8.35 86.49-9.05 86.04-9.75 85.09-10.23 84.14-10.7 82.69-11.3L82.69-11.3Q81.34-11.85 80.19-12.55 79.04-13.25 78.31-14.4 77.59-15.55 77.59-17.35L77.59-17.35 77.59-18.8Q77.59-21.9 79.29-23.53 80.99-25.15 85.44-25.15L85.44-25.15Q88.39-25.15 90.04-24.4 91.69-23.65 92.37-22.08 93.04-20.5 93.04-18.1L93.04-18.1 93.04-16.25 87.54-16.25 87.54-19.05Q87.54-20.7 87.06-21.38 86.59-22.05 85.49-22.05L85.49-22.05Q84.24-22.05 83.81-21.4 83.39-20.75 83.39-19.8L83.39-19.8 83.39-17.95Q83.39-16.7 84.06-15.98 84.74-15.25 85.84-14.83 86.94-14.4 88.19-13.9L88.19-13.9Q89.49-13.45 90.59-12.78 91.69-12.1 92.37-11 93.04-9.9 93.04-8.05L93.04-8.05 93.04-6.55Q93.04-4.3 92.31-2.75 91.59-1.2 89.81-0.43 88.04 0.35 84.94 0.35ZM103.39 0.35L103.39 0.35Q100.29 0.35 98.56-0.43 96.84-1.2 96.16-2.85 95.49-4.5 95.49-7L95.49-7 95.49-8.9 101.19-8.9 101.19-5.7Q101.19-4.1 101.64-3.43 102.09-2.75 103.34-2.75L103.34-2.75Q104.44-2.75 104.91-3.38 105.39-4 105.39-5.25L105.39-5.25 105.39-7.15Q105.39-8.35 104.94-9.05 104.49-9.75 103.54-10.23 102.59-10.7 101.14-11.3L101.14-11.3Q99.79-11.85 98.64-12.55 97.49-13.25 96.76-14.4 96.04-15.55 96.04-17.35L96.04-17.35 96.04-18.8Q96.04-21.9 97.74-23.53 99.44-25.15 103.89-25.15L103.89-25.15Q106.84-25.15 108.49-24.4 110.14-23.65 110.81-22.08 111.49-20.5 111.49-18.1L111.49-18.1 111.49-16.25 105.99-16.25 105.99-19.05Q105.99-20.7 105.51-21.38 105.04-22.05 103.94-22.05L103.94-22.05Q102.69-22.05 102.26-21.4 101.84-20.75 101.84-19.8L101.84-19.8 101.84-17.95Q101.84-16.7 102.51-15.98 103.19-15.25 104.29-14.83 105.39-14.4 106.64-13.9L106.64-13.9Q107.94-13.45 109.04-12.78 110.14-12.1 110.81-11 111.49-9.9 111.49-8.05L111.49-8.05 111.49-6.55Q111.49-4.3 110.76-2.75 110.04-1.2 108.26-0.43 106.49 0.35 103.39 0.35ZM122.14 0.4L122.14 0.4Q119.54 0.4 117.76-0.18 115.99-0.75 115.09-2.48 114.19-4.2 114.19-7.7L114.19-7.7 114.19-18.85Q114.19-22.5 116.14-23.85 118.09-25.2 122.04-25.2L122.04-25.2Q125.94-25.2 127.89-23.85 129.84-22.5 129.84-18.85L129.84-18.85 129.84-12.1 119.89-12.1 119.89-5.35Q119.89-3.85 120.36-3.25 120.84-2.65 122.09-2.65L122.09-2.65Q123.24-2.65 123.66-3.23 124.09-3.8 124.09-5.35L124.09-5.35 124.09-9.3 129.84-9.3 129.84-7.75Q129.84-4.25 128.94-2.5 128.04-0.75 126.31-0.18 124.59 0.4 122.14 0.4ZM119.89-19.15L119.89-14.7 124.09-14.7 124.09-19.15Q124.09-20.6 123.66-21.2 123.24-21.8 122.04-21.8L122.04-21.8Q120.84-21.8 120.36-21.2 119.89-20.6 119.89-19.15L119.89-19.15ZM138.58 0L132.88 0 132.88-24.75 137.73-24.75 138.23-21.85Q138.68-23.35 140.01-24.3 141.33-25.25 142.93-25.25L142.93-25.25Q145.33-25.25 146.53-24.43 147.73-23.6 148.16-22.13 148.58-20.65 148.58-18.65L148.58-18.65 148.58 0 142.88 0 142.88-18.3Q142.88-18.9 142.83-19.43 142.78-19.95 142.56-20.35 142.33-20.75 141.93-20.98 141.53-21.2 140.73-21.2L140.73-21.2Q140.13-21.2 139.68-20.98 139.23-20.75 138.98-20.45 138.73-20.15 138.58-19.9L138.58-19.9 138.58 0Z" opacity="1" transform="matrix(1,0,0,1,0,0)" fill="#ff004f" class="wordmark-text-0" data-fill-palette-color="primary" id="text-0"></path></svg></g></svg></g><g transform="matrix(1,0,0,1,163.310208,99.50327941383989)"><svg viewBox="0 0 232.209792 22.05958663273158" height="22.05958663273158" width="232.209792"><g transform="matrix(1,0,0,1,0,0)"><svg width="232.209792" viewBox="1 -31.5 337.85 32.1" height="22.05958663273158" data-palette-color="url(#68ce7d8e-fcdc-4be2-b1c6-cd7cd2258473)"></svg></g></svg></g></svg></g></svg></g></svg></g><defs></defs><mask id="8e2cb535-9e50-4035-b5fc-a6ee4893ebf1"><g id="SvgjsG3588"><svg viewBox="0 0 395.52 121.56286604657147" height="121.56286604657147" width="395.52"><g><svg viewBox="0 0 395.52 121.56286604657147" height="121.56286604657147" width="395.52"><g><svg viewBox="0 0 395.52 121.56286604657147" height="121.56286604657147" width="395.52"><g id="SvgjsG3587"><svg viewBox="0 0 395.52 121.56286604657147" height="121.56286604657147" width="395.52" id="SvgjsSvg3586"><g><svg viewBox="0 0 395.52 80.49932157394844" height="80.49932157394844" width="395.52"><g transform="matrix(1,0,0,1,0,0)"><svg width="395.52" viewBox="1.2 -29.6 147.38000000000002 30" height="80.49932157394844" data-palette-color="#ff004f"><path d="M9.6 0.35L9.6 0.35Q6.95 0.35 5.08-0.4 3.2-1.15 2.2-3.05 1.2-4.95 1.2-8.4L1.2-8.4 1.2-10.15Q2.75-10.15 4.25-10.15 5.75-10.15 7.25-10.15L7.25-10.15 7.25-7.9Q7.25-6.05 7.55-5.08 7.85-4.1 8.4-3.73 8.95-3.35 9.7-3.35L9.7-3.35Q10.85-3.35 11.53-4.17 12.2-5 12.2-7.4L12.2-7.4Q12.2-9.25 11.63-10.18 11.05-11.1 9.8-11.68 8.55-12.25 6.6-13.1L6.6-13.1Q4.85-13.85 3.7-14.9 2.55-15.95 2-17.55 1.45-19.15 1.45-21.45L1.45-21.45Q1.45-24.35 2.23-26.15 3-27.95 4.83-28.78 6.65-29.6 9.75-29.6L9.75-29.6Q13.75-29.6 15.88-27.88 18-26.15 18-22.7L18-22.7 18-19.15Q16.55-19.15 15.13-19.15 13.7-19.15 12.2-19.15L12.2-19.15 12.2-20.95Q12.2-23.2 11.68-24.1 11.15-25 9.8-25L9.8-25Q8.5-25 7.95-24.2 7.4-23.4 7.4-21.6L7.4-21.6Q7.4-19.95 8.08-19.03 8.75-18.1 9.8-17.63 10.85-17.15 12.05-16.7L12.05-16.7Q14.25-15.85 15.65-14.98 17.05-14.1 17.7-12.58 18.35-11.05 18.35-8.2L18.35-8.2Q18.35-5 17.28-3.13 16.2-1.25 14.23-0.45 12.25 0.35 9.6 0.35ZM25.85 0.4L25.85 0.4Q24.55 0.4 23.42 0.05 22.3-0.3 21.57-1.43 20.85-2.55 20.85-4.75L20.85-4.75 20.85-8.05Q20.85-10.4 22.22-11.88 23.6-13.35 26.55-14.4L26.55-14.4Q28.1-15.05 29-15.55 29.9-16.05 30.3-16.78 30.7-17.5 30.7-18.75L30.7-18.75 30.7-20.1Q30.7-20.9 30.45-21.33 30.2-21.75 29.72-21.95 29.25-22.15 28.65-22.15L28.65-22.15Q27.35-22.15 26.95-21.28 26.55-20.4 26.55-18.35L26.55-18.35 26.55-16.25 21.4-16.25 21.4-18.9Q21.4-20.75 21.92-22.18 22.45-23.6 24-24.43 25.55-25.25 28.65-25.25L28.65-25.25Q31.8-25.25 33.5-24.68 35.2-24.1 35.85-22.88 36.5-21.65 36.5-19.55L36.5-19.55 36.5 0 30.8 0 30.8-2.75Q30.4-1.3 28.97-0.45 27.55 0.4 25.85 0.4ZM28.3-3.35L28.3-3.35Q29.65-3.35 30.17-4.38 30.7-5.4 30.7-7.25L30.7-7.25 30.7-13.6Q30.4-13.1 29.7-12.73 29-12.35 28.3-11.9L28.3-11.9Q27.35-11.25 26.85-10.58 26.35-9.9 26.35-8.7L26.35-8.7 26.35-6.15Q26.35-5.1 26.6-4.48 26.85-3.85 27.3-3.6 27.75-3.35 28.3-3.35ZM47.34 0.4L47.34 0.4Q44.84 0.4 43.07-0.2 41.3-0.8 40.4-2.58 39.5-4.35 39.5-7.8L39.5-7.8 39.5-18.3Q39.5-22.15 41.45-23.68 43.4-25.2 47.34-25.2L47.34-25.2Q51.3-25.2 53.22-23.68 55.15-22.15 55.15-18.3L55.15-18.3 55.15-7.8Q55.15-4.35 54.27-2.6 53.4-0.85 51.65-0.23 49.9 0.4 47.34 0.4ZM47.34-3L47.34-3Q48.45-3 48.95-3.63 49.45-4.25 49.45-5.9L49.45-5.9 49.45-18.9Q49.45-20.45 48.97-21.13 48.5-21.8 47.34-21.8L47.34-21.8Q46.25-21.8 45.72-21.15 45.2-20.5 45.2-18.9L45.2-18.9 45.2-5.9Q45.2-4.25 45.72-3.63 46.25-3 47.34-3ZM63.94 0.35L63.94 0.35Q61.54 0.35 60.34-0.48 59.14-1.3 58.72-2.75 58.29-4.2 58.29-6.2L58.29-6.2 58.29-24.75 63.99-24.75 63.99-6.55Q63.99-5.8 64.12-5.15 64.24-4.5 64.69-4.1 65.14-3.7 66.14-3.7L66.14-3.7Q66.79-3.7 67.22-3.9 67.64-4.1 67.89-4.4 68.14-4.7 68.24-4.95L68.24-4.95 68.24-24.75 73.94-24.75 73.94 0 69.09 0 68.64-3Q68.24-1.6 66.99-0.63 65.74 0.35 63.94 0.35ZM84.94 0.35L84.94 0.35Q81.84 0.35 80.12-0.43 78.39-1.2 77.72-2.85 77.04-4.5 77.04-7L77.04-7 77.04-8.9 82.74-8.9 82.74-5.7Q82.74-4.1 83.19-3.43 83.64-2.75 84.89-2.75L84.89-2.75Q85.99-2.75 86.47-3.38 86.94-4 86.94-5.25L86.94-5.25 86.94-7.15Q86.94-8.35 86.49-9.05 86.04-9.75 85.09-10.23 84.14-10.7 82.69-11.3L82.69-11.3Q81.34-11.85 80.19-12.55 79.04-13.25 78.31-14.4 77.59-15.55 77.59-17.35L77.59-17.35 77.59-18.8Q77.59-21.9 79.29-23.53 80.99-25.15 85.44-25.15L85.44-25.15Q88.39-25.15 90.04-24.4 91.69-23.65 92.37-22.08 93.04-20.5 93.04-18.1L93.04-18.1 93.04-16.25 87.54-16.25 87.54-19.05Q87.54-20.7 87.06-21.38 86.59-22.05 85.49-22.05L85.49-22.05Q84.24-22.05 83.81-21.4 83.39-20.75 83.39-19.8L83.39-19.8 83.39-17.95Q83.39-16.7 84.06-15.98 84.74-15.25 85.84-14.83 86.94-14.4 88.19-13.9L88.19-13.9Q89.49-13.45 90.59-12.78 91.69-12.1 92.37-11 93.04-9.9 93.04-8.05L93.04-8.05 93.04-6.55Q93.04-4.3 92.31-2.75 91.59-1.2 89.81-0.43 88.04 0.35 84.94 0.35ZM103.39 0.35L103.39 0.35Q100.29 0.35 98.56-0.43 96.84-1.2 96.16-2.85 95.49-4.5 95.49-7L95.49-7 95.49-8.9 101.19-8.9 101.19-5.7Q101.19-4.1 101.64-3.43 102.09-2.75 103.34-2.75L103.34-2.75Q104.44-2.75 104.91-3.38 105.39-4 105.39-5.25L105.39-5.25 105.39-7.15Q105.39-8.35 104.94-9.05 104.49-9.75 103.54-10.23 102.59-10.7 101.14-11.3L101.14-11.3Q99.79-11.85 98.64-12.55 97.49-13.25 96.76-14.4 96.04-15.55 96.04-17.35L96.04-17.35 96.04-18.8Q96.04-21.9 97.74-23.53 99.44-25.15 103.89-25.15L103.89-25.15Q106.84-25.15 108.49-24.4 110.14-23.65 110.81-22.08 111.49-20.5 111.49-18.1L111.49-18.1 111.49-16.25 105.99-16.25 105.99-19.05Q105.99-20.7 105.51-21.38 105.04-22.05 103.94-22.05L103.94-22.05Q102.69-22.05 102.26-21.4 101.84-20.75 101.84-19.8L101.84-19.8 101.84-17.95Q101.84-16.7 102.51-15.98 103.19-15.25 104.29-14.83 105.39-14.4 106.64-13.9L106.64-13.9Q107.94-13.45 109.04-12.78 110.14-12.1 110.81-11 111.49-9.9 111.49-8.05L111.49-8.05 111.49-6.55Q111.49-4.3 110.76-2.75 110.04-1.2 108.26-0.43 106.49 0.35 103.39 0.35ZM122.14 0.4L122.14 0.4Q119.54 0.4 117.76-0.18 115.99-0.75 115.09-2.48 114.19-4.2 114.19-7.7L114.19-7.7 114.19-18.85Q114.19-22.5 116.14-23.85 118.09-25.2 122.04-25.2L122.04-25.2Q125.94-25.2 127.89-23.85 129.84-22.5 129.84-18.85L129.84-18.85 129.84-12.1 119.89-12.1 119.89-5.35Q119.89-3.85 120.36-3.25 120.84-2.65 122.09-2.65L122.09-2.65Q123.24-2.65 123.66-3.23 124.09-3.8 124.09-5.35L124.09-5.35 124.09-9.3 129.84-9.3 129.84-7.75Q129.84-4.25 128.94-2.5 128.04-0.75 126.31-0.18 124.59 0.4 122.14 0.4ZM119.89-19.15L119.89-14.7 124.09-14.7 124.09-19.15Q124.09-20.6 123.66-21.2 123.24-21.8 122.04-21.8L122.04-21.8Q120.84-21.8 120.36-21.2 119.89-20.6 119.89-19.15L119.89-19.15ZM138.58 0L132.88 0 132.88-24.75 137.73-24.75 138.23-21.85Q138.68-23.35 140.01-24.3 141.33-25.25 142.93-25.25L142.93-25.25Q145.33-25.25 146.53-24.43 147.73-23.6 148.16-22.13 148.58-20.65 148.58-18.65L148.58-18.65 148.58 0 142.88 0 142.88-18.3Q142.88-18.9 142.83-19.43 142.78-19.95 142.56-20.35 142.33-20.75 141.93-20.98 141.53-21.2 140.73-21.2L140.73-21.2Q140.13-21.2 139.68-20.98 139.23-20.75 138.98-20.45 138.73-20.15 138.58-19.9L138.58-19.9 138.58 0Z" opacity="1" transform="matrix(1,0,0,1,0,0)" fill="black" class="wordmark-text-0" id="SvgjsPath3585"></path></svg></g></svg></g><g transform="matrix(1,0,0,1,163.310208,99.50327941383989)"><svg viewBox="0 0 232.209792 22.05958663273158" height="22.05958663273158" width="232.209792"><g transform="matrix(1,0,0,1,0,0)"><svg width="232.209792" viewBox="1 -31.5 337.85 32.1" height="22.05958663273158" data-palette-color="url(#68ce7d8e-fcdc-4be2-b1c6-cd7cd2258473)"><path d="M10.1 0.6L10.1 0.6Q7.1 0.6 5.08-0.15 3.05-0.9 2.02-2.93 1-4.95 1-8.65L1-8.65 1-23.25Q1-26.95 3.5-28.48 6-30 10.1-30L10.1-30Q14.2-30 16.53-28.48 18.85-26.95 18.85-23.25L18.85-23.25 18.85-16.35 10.9-16.35 10.9-23.65Q10.9-24.5 10.7-24.85L10.7-24.85Q10.5-25.15 10.1-25.15L10.1-25.15Q9.75-25.15 9.5-24.85L9.5-24.85Q9.3-24.5 9.3-23.65L9.3-23.65 9.3-5.5Q9.3-4.6 9.5-4.35L9.5-4.35Q9.7-4 10.1-4L10.1-4Q10.5-4 10.7-4.35L10.7-4.35Q10.9-4.6 10.9-5.5L10.9-5.5 10.9-12.4 18.85-12.4 18.85-8.7Q18.85-4.95 17.93-2.95 17-0.95 15.05-0.18 13.1 0.6 10.1 0.6ZM10.1-2.2L10.1-2.2Q10.7-2.2 11.23-2.23 11.75-2.25 12.2-2.4L12.2-2.4Q13.7-2.85 14.35-4.03 15-5.2 15-7.8L15-7.8 14.9-10.8 14.8-10.8 14.75-7.8Q14.75-5.4 14.15-4.23 13.55-3.05 12.1-2.6L12.1-2.6Q11.3-2.3 10.1-2.3L10.1-2.3Q8.9-2.3 8-2.6L8-2.6Q6.7-3 6.1-4.2 5.5-5.4 5.5-7.8L5.5-7.8 5.7-14.7 5.5-23.3Q5.5-24.8 6.1-25.75 6.7-26.7 8.15-27.05L8.15-27.05Q8.6-27.15 9.1-27.23 9.6-27.3 10.1-27.3L10.1-27.3Q11.15-27.3 11.9-27.1L11.9-27.1Q13.4-26.75 14.05-25.85 14.7-24.95 14.7-23.65L14.7-23.65 14.75-18.9 14.85-18.9 14.95-23.65Q14.95-25.05 14.25-25.98 13.55-26.9 11.95-27.3L11.95-27.3Q11.8-27.35 11.6-27.38 11.4-27.4 11.15-27.4L11.15-27.4 10.1-27.4Q9.55-27.4 9.03-27.38 8.5-27.35 8.15-27.25L8.15-27.25Q6.6-26.9 5.95-25.9 5.3-24.9 5.3-23.3L5.3-23.3 5.05-14.7 5.3-7.8Q5.3-5.25 5.95-4.03 6.6-2.8 7.9-2.4L7.9-2.4Q8.35-2.25 8.9-2.23 9.45-2.2 10.1-2.2ZM29.4 0.6L29.4 0.6Q26.45 0.6 24.52-0.08 22.6-0.75 21.67-2.68 20.75-4.6 20.75-8.3L20.75-8.3 20.75-18.65Q20.75-22.35 23-23.75 25.25-25.15 29.4-25.15L29.4-25.15Q33.55-25.15 35.8-23.75 38.05-22.35 38.05-18.65L38.05-18.65 38.05-8.35Q38.05-4.65 37.12-2.7 36.2-0.75 34.3-0.08 32.4 0.6 29.4 0.6ZM28.1-1.4L28.1-1.4 28.1-1.5Q26.6-1.6 25.75-2.8 24.9-4 24.95-6.25L24.95-6.25 25.1-12.25 24.95-19.15Q24.9-20.65 25.5-21.7 26.1-22.75 27.9-22.75L27.9-22.75 27.9-22.85Q26-22.85 25.3-21.78 24.6-20.7 24.55-19.15L24.55-19.15 24.35-12.25 24.55-6.1Q24.65-3.75 25.62-2.63 26.6-1.5 28.1-1.4ZM30.65-1.5L30.65-1.4Q32.15-1.5 33.15-2.63 34.15-3.75 34.2-6.1L34.2-6.1 34.4-12.25 34.2-19.15Q34.15-20.7 33.45-21.78 32.75-22.85 30.85-22.85L30.85-22.85 30.85-22.75Q32.65-22.75 33.25-21.7 33.85-20.65 33.8-19.15L33.8-19.15 33.65-12.25 33.8-6.25Q33.9-4 33.02-2.8 32.15-1.6 30.65-1.5L30.65-1.5ZM29.4-3.4L29.4-3.4Q29.8-3.4 30.02-3.73 30.25-4.05 30.25-4.9L30.25-4.9 30.25-19.65Q30.25-20.5 30.02-20.83 29.8-21.15 29.4-21.15L29.4-21.15Q29-21.15 28.77-20.83 28.55-20.5 28.55-19.65L28.55-19.65 28.55-4.9Q28.55-4.05 28.77-3.73 29-3.4 29.4-3.4ZM46.84 0.35L46.84 0.35Q44.55 0.35 43.05-0.25 41.55-0.85 40.8-2.58 40.05-4.3 40.05-7.7L40.05-7.7 40.05-19.55Q40.05-21.7 40.84-22.88 41.65-24.05 42.84-24.53 44.05-25 45.3-25L45.3-25Q47.3-25 48.2-24.35 49.09-23.7 49.55-23L49.55-23 49.55-31.5 57.34-31.5 57.34 0 52.09 0 51.3-2.35Q50.8-1.55 49.8-0.6 48.8 0.35 46.84 0.35ZM53.15-16.65L53.4-2.35 53.59-2.35 53.8-16.65 53.55-29.55 53.34-29.55 53.15-16.65ZM48.9-1.9L48.9-1.9 48.9-2Q48.55-1.85 48.22-1.8 47.9-1.75 47.55-1.75L47.55-1.75Q46.15-1.75 45.17-2.98 44.2-4.2 44.25-6.25L44.25-6.25 44.4-12.25 44.25-19.15Q44.2-20.55 44.9-21.5 45.59-22.45 46.84-22.45L46.84-22.45Q47.15-22.45 47.47-22.38 47.8-22.3 48.15-22.2L48.15-22.2 48.15-22.3Q47.75-22.45 47.37-22.5 47-22.55 46.7-22.55L46.7-22.55Q45.3-22.55 44.59-21.58 43.9-20.6 43.84-19.15L43.84-19.15 43.65-12.25 43.84-6.1Q43.95-3.95 44.95-2.78 45.95-1.6 47.4-1.6L47.4-1.6Q48.15-1.6 48.9-1.9ZM48.7-4L48.7-4Q49.09-4 49.32-4.33 49.55-4.65 49.55-5.5L49.55-5.5 49.55-20.25 49.3-20.3Q49.15-20.35 49-20.38 48.84-20.4 48.7-20.4L48.7-20.4Q48.3-20.4 48.07-20.08 47.84-19.75 47.84-18.9L47.84-18.9 47.84-5.5Q47.84-4.65 48.07-4.33 48.3-4 48.7-4ZM68.24 0.6L68.24 0.6Q65.29 0.6 63.37-0.08 61.44-0.75 60.52-2.68 59.59-4.6 59.59-8.3L59.59-8.3 59.59-18.65Q59.59-22.35 61.84-23.75 64.09-25.15 68.24-25.15L68.24-25.15Q72.39-25.15 74.64-23.75 76.89-22.35 76.89-18.65L76.89-18.65 76.89-11.65 67.39-11.65 67.39-4.9Q67.39-4.05 67.62-3.73 67.84-3.4 68.24-3.4L68.24-3.4Q68.64-3.4 68.87-3.73 69.09-4.05 69.09-4.9L69.09-4.9 69.09-9.4 76.89-9.4 76.89-8.35Q76.89-4.65 75.97-2.7 75.04-0.75 73.14-0.08 71.24 0.6 68.24 0.6ZM72.74-19.1L72.74-13.35 73.14-13.35 73.14-19.1Q73.14-20.75 72.27-21.83 71.39-22.9 69.59-22.9L69.59-22.9 69.59-22.8Q71.34-22.8 72.04-21.73 72.74-20.65 72.74-19.1L72.74-19.1ZM66.39-1.65L66.39-1.65 66.39-1.75Q65.29-1.75 64.39-2.7 63.49-3.65 63.54-5.1L63.54-5.1 63.69-12.25 63.54-19.45Q63.49-20.9 64.67-21.83 65.84-22.75 67.24-22.75L67.24-22.75 67.24-22.85Q65.49-22.85 64.34-21.93 63.19-21 63.14-19.15L63.14-19.15 62.99-12.25 63.14-5.15Q63.19-3.6 64.24-2.63 65.29-1.65 66.39-1.65ZM67.39-19.65L67.39-15 69.09-15 69.09-19.65Q69.09-20.5 68.87-20.83 68.64-21.15 68.24-21.15L68.24-21.15Q67.84-21.15 67.62-20.83 67.39-20.5 67.39-19.65L67.39-19.65ZM69.19-1.75L69.19-1.65Q70.99-1.65 72.07-2.83 73.14-4 73.14-5.65L73.14-5.65 73.14-8.2 72.74-8.2 72.74-5.65Q72.74-4.1 71.84-2.93 70.94-1.75 69.19-1.75L69.19-1.75ZM95.24 0.6L95.24 0.6Q92.24 0.6 90.21-0.15 88.19-0.9 87.16-2.93 86.14-4.95 86.14-8.65L86.14-8.65 86.14-23.25Q86.14-26.95 88.64-28.48 91.14-30 95.24-30L95.24-30Q99.34-30 101.66-28.48 103.99-26.95 103.99-23.25L103.99-23.25 103.99-16.35 96.04-16.35 96.04-23.65Q96.04-24.5 95.84-24.85L95.84-24.85Q95.64-25.15 95.24-25.15L95.24-25.15Q94.89-25.15 94.64-24.85L94.64-24.85Q94.44-24.5 94.44-23.65L94.44-23.65 94.44-5.5Q94.44-4.6 94.64-4.35L94.64-4.35Q94.84-4 95.24-4L95.24-4Q95.64-4 95.84-4.35L95.84-4.35Q96.04-4.6 96.04-5.5L96.04-5.5 96.04-12.4 103.99-12.4 103.99-8.7Q103.99-4.95 103.06-2.95 102.14-0.95 100.19-0.18 98.24 0.6 95.24 0.6ZM95.24-2.2L95.24-2.2Q95.84-2.2 96.36-2.23 96.89-2.25 97.34-2.4L97.34-2.4Q98.84-2.85 99.49-4.03 100.14-5.2 100.14-7.8L100.14-7.8 100.04-10.8 99.94-10.8 99.89-7.8Q99.89-5.4 99.29-4.23 98.69-3.05 97.24-2.6L97.24-2.6Q96.44-2.3 95.24-2.3L95.24-2.3Q94.04-2.3 93.14-2.6L93.14-2.6Q91.84-3 91.24-4.2 90.64-5.4 90.64-7.8L90.64-7.8 90.84-14.7 90.64-23.3Q90.64-24.8 91.24-25.75 91.84-26.7 93.29-27.05L93.29-27.05Q93.74-27.15 94.24-27.23 94.74-27.3 95.24-27.3L95.24-27.3Q96.29-27.3 97.04-27.1L97.04-27.1Q98.54-26.75 99.19-25.85 99.84-24.95 99.84-23.65L99.84-23.65 99.89-18.9 99.99-18.9 100.09-23.65Q100.09-25.05 99.39-25.98 98.69-26.9 97.09-27.3L97.09-27.3Q96.94-27.35 96.74-27.38 96.54-27.4 96.29-27.4L96.29-27.4 95.24-27.4Q94.69-27.4 94.16-27.38 93.64-27.35 93.29-27.25L93.29-27.25Q91.74-26.9 91.09-25.9 90.44-24.9 90.44-23.3L90.44-23.3 90.19-14.7 90.44-7.8Q90.44-5.25 91.09-4.03 91.74-2.8 93.04-2.4L93.04-2.4Q93.49-2.25 94.04-2.23 94.59-2.2 95.24-2.2ZM113.94 0L106.14 0 106.14-24.75 112.79-24.75 113.39-21.55Q114.04-23.2 115.44-24.08 116.84-24.95 118.54-24.95L118.54-24.95Q119.19-24.95 119.84-24.8L119.84-24.8 119.84-18.85Q118.94-19 118.09-19L118.09-19Q117.39-19 116.64-18.85 115.89-18.7 115.34-18.3L115.34-18.3Q114.49-17.65 114.21-16.53 113.94-15.4 113.94-13.95L113.94-13.95 113.94 0ZM114.14-20.25L114.14-20.1Q114.44-20.7 115.51-21.28 116.59-21.85 117.84-21.85L117.84-21.85 117.84-22.25Q116.54-22.25 115.49-21.58 114.44-20.9 114.14-20.25L114.14-20.25ZM109.69-12L109.89-2.35 110.09-2.35 110.34-12 110.14-21.45 109.94-21.45 109.69-12ZM129.58 0.6L129.58 0.6Q126.63 0.6 124.71-0.08 122.78-0.75 121.86-2.68 120.93-4.6 120.93-8.3L120.93-8.3 120.93-18.65Q120.93-22.35 123.18-23.75 125.43-25.15 129.58-25.15L129.58-25.15Q133.73-25.15 135.98-23.75 138.23-22.35 138.23-18.65L138.23-18.65 138.23-11.65 128.73-11.65 128.73-4.9Q128.73-4.05 128.96-3.73 129.18-3.4 129.58-3.4L129.58-3.4Q129.98-3.4 130.21-3.73 130.43-4.05 130.43-4.9L130.43-4.9 130.43-9.4 138.23-9.4 138.23-8.35Q138.23-4.65 137.31-2.7 136.38-0.75 134.48-0.08 132.58 0.6 129.58 0.6ZM134.08-19.1L134.08-13.35 134.48-13.35 134.48-19.1Q134.48-20.75 133.61-21.83 132.73-22.9 130.93-22.9L130.93-22.9 130.93-22.8Q132.68-22.8 133.38-21.73 134.08-20.65 134.08-19.1L134.08-19.1ZM127.73-1.65L127.73-1.65 127.73-1.75Q126.63-1.75 125.73-2.7 124.83-3.65 124.88-5.1L124.88-5.1 125.03-12.25 124.88-19.45Q124.83-20.9 126.01-21.83 127.18-22.75 128.58-22.75L128.58-22.75 128.58-22.85Q126.83-22.85 125.68-21.93 124.53-21 124.48-19.15L124.48-19.15 124.33-12.25 124.48-5.15Q124.53-3.6 125.58-2.63 126.63-1.65 127.73-1.65ZM128.73-19.65L128.73-15 130.43-15 130.43-19.65Q130.43-20.5 130.21-20.83 129.98-21.15 129.58-21.15L129.58-21.15Q129.18-21.15 128.96-20.83 128.73-20.5 128.73-19.65L128.73-19.65ZM130.53-1.75L130.53-1.65Q132.33-1.65 133.41-2.83 134.48-4 134.48-5.65L134.48-5.65 134.48-8.2 134.08-8.2 134.08-5.65Q134.08-4.1 133.18-2.93 132.28-1.75 130.53-1.75L130.53-1.75ZM144.58 0.35L144.58 0.35Q143.53 0.35 142.38 0.05 141.23-0.25 140.46-1.28 139.68-2.3 139.68-4.45L139.68-4.45 139.68-8.5Q139.68-10.6 140.68-11.78 141.68-12.95 143.23-13.6 144.78-14.25 146.48-14.85L146.48-14.85Q148.03-15.35 148.48-16.07 148.93-16.8 148.93-18.25L148.93-18.25 148.93-19.85Q148.93-20.4 148.78-20.78 148.63-21.15 148.08-21.15L148.08-21.15Q147.53-21.15 147.38-20.7L147.38-20.7Q147.23-20.2 147.23-19.2L147.23-19.2 147.23-16.05 140.18-16.05 140.18-19.3Q140.18-22.3 141.91-23.78 143.63-25.25 148.13-25.25L148.13-25.25Q151.33-25.25 153.23-24.83 155.13-24.4 156.01-23.13 156.88-21.85 156.88-19.3L156.88-19.3 156.88 0 149.08 0 149.08-2.45Q148.78-1.5 147.76-0.58 146.73 0.35 144.58 0.35ZM143.28-19.75L143.28-18.3 143.68-18.3 143.68-19.75Q143.68-21.3 144.96-22.38 146.23-23.45 147.98-23.45L147.98-23.45 147.98-23.55Q146.23-23.55 144.76-22.5 143.28-21.45 143.28-19.75L143.28-19.75ZM152.48-12L152.68-2.35 152.88-2.35 153.13-12 152.93-21.45 152.73-21.45 152.48-12ZM145.48-1.95L145.48-1.95 145.48-2.05Q144.53-2.05 144.11-2.85 143.68-3.65 143.68-5.55L143.68-5.55 143.68-9.05Q143.68-10.75 144.66-11.6 145.63-12.45 146.48-12.75L146.48-12.75 146.48-12.85Q145.48-12.5 144.33-11.58 143.18-10.65 143.18-9.05L143.18-9.05 143.18-5.55Q143.18-3.55 143.83-2.75 144.48-1.95 145.48-1.95ZM148.08-4L148.08-4Q148.73-4 148.83-4.67 148.93-5.35 148.93-6.35L148.93-6.35 148.93-12.3Q148.18-11.85 147.71-11.15 147.23-10.45 147.23-9.3L147.23-9.3 147.23-6.05Q147.23-5.2 147.36-4.6 147.48-4 148.08-4ZM167.93 0.5L167.93 0.5Q165.98 0.5 164.28 0.08 162.58-0.35 161.5-1.65 160.43-2.95 160.43-5.5L160.43-5.5 160.43-20.25 157.98-20.25 157.98-23.6 161.13-24.75 162.18-29.25 168.23-29.25 168.23-24.75 172.43-24.75 172.43-20.25 168.23-20.25 168.23-6.85Q168.23-6.1 168.55-5.38 168.88-4.65 170.08-4.65L170.08-4.65 170.78-4.65Q170.98-4.65 171.15-4.65 171.33-4.65 171.53-4.7L171.53-4.7 172.43-4.8 172.43-0.2Q172.08-0.1 171.75-0.03 171.43 0.05 171.03 0.15L171.03 0.15Q170.38 0.3 169.58 0.4 168.78 0.5 167.93 0.5ZM167.13-2.1L167.13-2.1 167.13-2.15Q165.83-2.25 165.03-3.15 164.23-4.05 164.28-5.8L164.28-5.8 164.48-14.75 164.33-22.2 170.13-22.35 170.13-22.45 164.33-22.55 164.28-26 164.08-26 163.98-22.55 159.78-22.45 159.78-22.35 163.98-22.2 163.83-14.75 163.98-5.65Q164.03-4.35 164.78-3.23 165.53-2.1 167.13-2.1ZM182.43 0.6L182.43 0.6Q179.48 0.6 177.55-0.08 175.63-0.75 174.7-2.68 173.78-4.6 173.78-8.3L173.78-8.3 173.78-18.65Q173.78-22.35 176.03-23.75 178.28-25.15 182.43-25.15L182.43-25.15Q186.58-25.15 188.83-23.75 191.08-22.35 191.08-18.65L191.08-18.65 191.08-11.65 181.58-11.65 181.58-4.9Q181.58-4.05 181.8-3.73 182.03-3.4 182.43-3.4L182.43-3.4Q182.83-3.4 183.05-3.73 183.28-4.05 183.28-4.9L183.28-4.9 183.28-9.4 191.08-9.4 191.08-8.35Q191.08-4.65 190.15-2.7 189.23-0.75 187.33-0.08 185.43 0.6 182.43 0.6ZM186.93-19.1L186.93-13.35 187.33-13.35 187.33-19.1Q187.33-20.75 186.45-21.83 185.58-22.9 183.78-22.9L183.78-22.9 183.78-22.8Q185.53-22.8 186.23-21.73 186.93-20.65 186.93-19.1L186.93-19.1ZM180.58-1.65L180.58-1.65 180.58-1.75Q179.48-1.75 178.58-2.7 177.68-3.65 177.73-5.1L177.73-5.1 177.88-12.25 177.73-19.45Q177.68-20.9 178.85-21.83 180.03-22.75 181.43-22.75L181.43-22.75 181.43-22.85Q179.68-22.85 178.53-21.93 177.38-21 177.33-19.15L177.33-19.15 177.18-12.25 177.33-5.15Q177.38-3.6 178.43-2.63 179.48-1.65 180.58-1.65ZM181.58-19.65L181.58-15 183.28-15 183.28-19.65Q183.28-20.5 183.05-20.83 182.83-21.15 182.43-21.15L182.43-21.15Q182.03-21.15 181.8-20.83 181.58-20.5 181.58-19.65L181.58-19.65ZM183.38-1.75L183.38-1.65Q185.18-1.65 186.25-2.83 187.33-4 187.33-5.65L187.33-5.65 187.33-8.2 186.93-8.2 186.93-5.65Q186.93-4.1 186.03-2.93 185.13-1.75 183.38-1.75L183.38-1.75ZM208.52 0L200.57 0 200.57-29.55 208.52-29.55 208.52 0ZM204.12-15L204.32-2.35 204.52-2.35 204.77-15 204.57-27.35 204.37-27.35 204.12-15ZM218.82 0L211.02 0 211.02-24.75 217.67-24.75 218.27-21.5Q218.72-23.05 219.97-24.08 221.22-25.1 222.82-25.1L222.82-25.1Q226.12-25.1 227.22-23.45 228.32-21.8 228.32-18.55L228.32-18.55 228.32 0 220.52 0 220.52-18.25Q220.52-19.65 219.67-19.65L219.67-19.65Q219.47-19.65 219.22-19.63 218.97-19.6 218.82-19.5L218.82-19.5 218.82 0ZM224.07-12.25L224.27-2.35 224.47-2.35 224.72-12.25 224.57-19.95Q224.52-21.1 223.97-21.78 223.42-22.45 222.37-22.45L222.37-22.45Q221.12-22.45 220.22-21.7L220.22-21.7 220.22-21.6Q221.22-22.35 222.37-22.35L222.37-22.35Q223.47-22.35 223.89-21.5 224.32-20.65 224.27-19.95L224.27-19.95 224.07-12.25ZM214.62-12L214.82-2.35 215.02-2.35 215.27-12 215.07-21.45 214.87-21.45 214.62-12ZM238.37 0L230.57 0 230.57-24.75 237.22-24.75 237.82-21.5Q238.27-23.05 239.52-24.08 240.77-25.1 242.37-25.1L242.37-25.1Q245.67-25.1 246.77-23.45 247.87-21.8 247.87-18.55L247.87-18.55 247.87 0 240.07 0 240.07-18.25Q240.07-19.65 239.22-19.65L239.22-19.65Q239.02-19.65 238.77-19.63 238.52-19.6 238.37-19.5L238.37-19.5 238.37 0ZM243.62-12.25L243.82-2.35 244.02-2.35 244.27-12.25 244.12-19.95Q244.07-21.1 243.52-21.78 242.97-22.45 241.92-22.45L241.92-22.45Q240.67-22.45 239.77-21.7L239.77-21.7 239.77-21.6Q240.77-22.35 241.92-22.35L241.92-22.35Q243.02-22.35 243.44-21.5 243.87-20.65 243.82-19.95L243.82-19.95 243.62-12.25ZM234.17-12L234.37-2.35 234.57-2.35 234.82-12 234.62-21.45 234.42-21.45 234.17-12ZM258.51 0.6L258.51 0.6Q255.56 0.6 253.64-0.08 251.71-0.75 250.79-2.68 249.86-4.6 249.86-8.3L249.86-8.3 249.86-18.65Q249.86-22.35 252.11-23.75 254.36-25.15 258.51-25.15L258.51-25.15Q262.66-25.15 264.91-23.75 267.16-22.35 267.16-18.65L267.16-18.65 267.16-8.35Q267.16-4.65 266.24-2.7 265.31-0.75 263.41-0.08 261.51 0.6 258.51 0.6ZM257.21-1.4L257.21-1.4 257.21-1.5Q255.71-1.6 254.86-2.8 254.01-4 254.06-6.25L254.06-6.25 254.21-12.25 254.06-19.15Q254.01-20.65 254.61-21.7 255.21-22.75 257.01-22.75L257.01-22.75 257.01-22.85Q255.11-22.85 254.41-21.78 253.71-20.7 253.66-19.15L253.66-19.15 253.46-12.25 253.66-6.1Q253.76-3.75 254.74-2.63 255.71-1.5 257.21-1.4ZM259.76-1.5L259.76-1.4Q261.26-1.5 262.26-2.63 263.26-3.75 263.31-6.1L263.31-6.1 263.51-12.25 263.31-19.15Q263.26-20.7 262.56-21.78 261.86-22.85 259.96-22.85L259.96-22.85 259.96-22.75Q261.76-22.75 262.36-21.7 262.96-20.65 262.91-19.15L262.91-19.15 262.76-12.25 262.91-6.25Q263.01-4 262.14-2.8 261.26-1.6 259.76-1.5L259.76-1.5ZM258.51-3.4L258.51-3.4Q258.91-3.4 259.14-3.73 259.36-4.05 259.36-4.9L259.36-4.9 259.36-19.65Q259.36-20.5 259.14-20.83 258.91-21.15 258.51-21.15L258.51-21.15Q258.11-21.15 257.89-20.83 257.66-20.5 257.66-19.65L257.66-19.65 257.66-4.9Q257.66-4.05 257.89-3.73 258.11-3.4 258.51-3.4ZM281.86 0L272.51 0 267.56-24.75 275.61-24.75 277.66-9.2 279.36-24.75 286.76-24.75 281.86 0ZM273.36-13.45L275.46-2.35 275.61-2.35 273.96-13.5 272.21-23.3 272.01-23.3 273.36-13.45ZM280.91-13.5L279.36-2.35 279.51-2.35 281.56-13.5 282.66-23.3 282.46-23.3 280.91-13.5ZM292.36 0.35L292.36 0.35Q291.31 0.35 290.16 0.05 289.01-0.25 288.23-1.28 287.46-2.3 287.46-4.45L287.46-4.45 287.46-8.5Q287.46-10.6 288.46-11.78 289.46-12.95 291.01-13.6 292.56-14.25 294.26-14.85L294.26-14.85Q295.81-15.35 296.26-16.07 296.71-16.8 296.71-18.25L296.71-18.25 296.71-19.85Q296.71-20.4 296.56-20.78 296.41-21.15 295.86-21.15L295.86-21.15Q295.31-21.15 295.16-20.7L295.16-20.7Q295.01-20.2 295.01-19.2L295.01-19.2 295.01-16.05 287.96-16.05 287.96-19.3Q287.96-22.3 289.68-23.78 291.41-25.25 295.91-25.25L295.91-25.25Q299.11-25.25 301.01-24.83 302.91-24.4 303.78-23.13 304.66-21.85 304.66-19.3L304.66-19.3 304.66 0 296.86 0 296.86-2.45Q296.56-1.5 295.53-0.58 294.51 0.35 292.36 0.35ZM291.06-19.75L291.06-18.3 291.46-18.3 291.46-19.75Q291.46-21.3 292.73-22.38 294.01-23.45 295.76-23.45L295.76-23.45 295.76-23.55Q294.01-23.55 292.53-22.5 291.06-21.45 291.06-19.75L291.06-19.75ZM300.26-12L300.46-2.35 300.66-2.35 300.91-12 300.71-21.45 300.51-21.45 300.26-12ZM293.26-1.95L293.26-1.95 293.26-2.05Q292.31-2.05 291.88-2.85 291.46-3.65 291.46-5.55L291.46-5.55 291.46-9.05Q291.46-10.75 292.43-11.6 293.41-12.45 294.26-12.75L294.26-12.75 294.26-12.85Q293.26-12.5 292.11-11.58 290.96-10.65 290.96-9.05L290.96-9.05 290.96-5.55Q290.96-3.55 291.61-2.75 292.26-1.95 293.26-1.95ZM295.86-4L295.86-4Q296.51-4 296.61-4.67 296.71-5.35 296.71-6.35L296.71-6.35 296.71-12.3Q295.96-11.85 295.48-11.15 295.01-10.45 295.01-9.3L295.01-9.3 295.01-6.05Q295.01-5.2 295.13-4.6 295.26-4 295.86-4ZM315.71 0.5L315.71 0.5Q313.76 0.5 312.06 0.08 310.36-0.35 309.28-1.65 308.21-2.95 308.21-5.5L308.21-5.5 308.21-20.25 305.76-20.25 305.76-23.6 308.91-24.75 309.96-29.25 316.01-29.25 316.01-24.75 320.21-24.75 320.21-20.25 316.01-20.25 316.01-6.85Q316.01-6.1 316.33-5.38 316.66-4.65 317.86-4.65L317.86-4.65 318.56-4.65Q318.76-4.65 318.93-4.65 319.11-4.65 319.31-4.7L319.31-4.7 320.21-4.8 320.21-0.2Q319.86-0.1 319.53-0.03 319.21 0.05 318.81 0.15L318.81 0.15Q318.16 0.3 317.36 0.4 316.56 0.5 315.71 0.5ZM314.91-2.1L314.91-2.1 314.91-2.15Q313.61-2.25 312.81-3.15 312.01-4.05 312.06-5.8L312.06-5.8 312.26-14.75 312.11-22.2 317.91-22.35 317.91-22.45 312.11-22.55 312.06-26 311.86-26 311.76-22.55 307.56-22.45 307.56-22.35 311.76-22.2 311.61-14.75 311.76-5.65Q311.81-4.35 312.56-3.23 313.31-2.1 314.91-2.1ZM330.2 0.6L330.2 0.6Q327.25 0.6 325.33-0.08 323.4-0.75 322.48-2.68 321.55-4.6 321.55-8.3L321.55-8.3 321.55-18.65Q321.55-22.35 323.8-23.75 326.05-25.15 330.2-25.15L330.2-25.15Q334.35-25.15 336.6-23.75 338.85-22.35 338.85-18.65L338.85-18.65 338.85-11.65 329.35-11.65 329.35-4.9Q329.35-4.05 329.58-3.73 329.8-3.4 330.2-3.4L330.2-3.4Q330.6-3.4 330.83-3.73 331.05-4.05 331.05-4.9L331.05-4.9 331.05-9.4 338.85-9.4 338.85-8.35Q338.85-4.65 337.93-2.7 337-0.75 335.1-0.08 333.2 0.6 330.2 0.6ZM334.7-19.1L334.7-13.35 335.1-13.35 335.1-19.1Q335.1-20.75 334.23-21.83 333.35-22.9 331.55-22.9L331.55-22.9 331.55-22.8Q333.3-22.8 334-21.73 334.7-20.65 334.7-19.1L334.7-19.1ZM328.35-1.65L328.35-1.65 328.35-1.75Q327.25-1.75 326.35-2.7 325.45-3.65 325.5-5.1L325.5-5.1 325.65-12.25 325.5-19.45Q325.45-20.9 326.63-21.83 327.8-22.75 329.2-22.75L329.2-22.75 329.2-22.85Q327.45-22.85 326.3-21.93 325.15-21 325.1-19.15L325.1-19.15 324.95-12.25 325.1-5.15Q325.15-3.6 326.2-2.63 327.25-1.65 328.35-1.65ZM329.35-19.65L329.35-15 331.05-15 331.05-19.65Q331.05-20.5 330.83-20.83 330.6-21.15 330.2-21.15L330.2-21.15Q329.8-21.15 329.58-20.83 329.35-20.5 329.35-19.65L329.35-19.65ZM331.15-1.75L331.15-1.65Q332.95-1.65 334.03-2.83 335.1-4 335.1-5.65L335.1-5.65 335.1-8.2 334.7-8.2 334.7-5.65Q334.7-4.1 333.8-2.93 332.9-1.75 331.15-1.75L331.15-1.75Z" opacity="1" transform="matrix(1,0,0,1,0,0)" fill="white" class="slogan-text-1" id="SvgjsPath3584"></path></svg></g></svg></g></svg></g></svg></g></svg></g><defs><mask></mask></defs></svg><rect width="395.52" height="121.56286604657147" fill="black" stroke="none" visibility="hidden"></rect></g></mask><linearGradient x1="0.054" x2="0.941" y1="0.5" y2="0.5" id="68ce7d8e-fcdc-4be2-b1c6-cd7cd2258473"><stop stop-color="#8c8c8c" offset="0"></stop><stop stop-color="#e3e4e5" offset="0.498"></stop><stop stop-color="#8c8c8c" offset="1"></stop></linearGradient><rect width="395.52" height="121.56286604657147" fill="url(#68ce7d8e-fcdc-4be2-b1c6-cd7cd2258473)" mask="url(#8e2cb535-9e50-4035-b5fc-a6ee4893ebf1)" data-fill-palette-color="secondary"></rect></svg><rect width="395.52" height="121.56286604657147" fill="none" stroke="none" visibility="hidden"></rect></g></svg></g></svg>